<?xml version="1.0" encoding="UTF-8"?>
<svg version="1.1" xmlns="http://www.w3.org/2000/svg" width="1024" height="1024">
<path d="M0 0 C337.92 0 675.84 0 1024 0 C1024 337.92 1024 675.84 1024 1024 C686.08 1024 348.16 1024 0 1024 C0 686.08 0 348.16 0 0 Z " fill="#FDFDFD" transform="translate(0,0)"/>
<path d="M0 0 C1.34672006 1.02430089 2.68172021 2.06434661 4 3.125 C10.61796262 8.24506985 18.60208603 10.68238982 26.57617188 12.890625 C33.48131455 14.83631052 40.32154215 16.94635234 47.15625 19.125 C49.01017833 19.71321172 50.86410678 20.30142308 52.71804047 20.88961792 C54.65666613 21.50509274 56.59497926 22.12154238 58.53320312 22.73828125 C62.54739808 24.01547999 66.56267824 25.28924324 70.578125 26.5625 C81.4578163 30.01300982 92.33589408 33.46856368 103.21081543 36.93408203 C106.6876989 38.04148934 110.16540598 39.14629257 113.64331055 40.25048828 C115.92261685 40.97538938 118.20058235 41.70439196 120.47851562 42.43359375 C137.77721682 47.94510195 152.17273887 51.54569629 170 46 C170.825 45.74863281 171.65 45.49726563 172.5 45.23828125 C176.43909218 43.98069946 180.17090317 42.48283415 183.953125 40.80859375 C187.68064606 39.33608066 191.53831416 38.26339888 195.375 37.11328125 C200.51673166 35.5341934 205.59872539 33.79196155 210.6875 32.05078125 C219.9945836 29.09841629 229.42756748 29.52731807 239 31 C239 31.66 239 32.32 239 33 C238.2160083 33.29205322 237.4320166 33.58410645 236.62426758 33.88500977 C228.50286439 36.95349692 220.57709744 40.31079276 212.6875 43.9375 C211.0159082 44.68676758 211.0159082 44.68676758 209.31054688 45.45117188 C193.93967567 52.50411751 185.54672933 62.3900381 176.43603516 76.33056641 C172.09733981 82.9481446 167.37276465 89.12059689 162.1796875 95.09375 C159.48559808 98.3517186 157.61992924 100.81424534 157.375 105.125 C158.10251263 109.63557833 158.8816999 111.65353159 162 115 C168.69667033 119.64725829 176.10696703 120.01593494 184 119 C195.08295322 116.47950851 203.52394176 112.07377543 211.0625 103.5625 C222.99899256 90.28105053 233.99144961 86.11178971 251.9375 84.6875 C261.66235322 84.91907169 267.74199489 92.27478102 274 98.8125 C279.25658995 104.23236282 284.48495507 109.54791795 290.2265625 114.45581055 C293.71234479 117.49099406 296.86619929 120.85092698 300.09375 124.15625 C302.22349155 126.29012917 304.4432465 128.27772776 306.7265625 130.24609375 C344.85987052 163.31355646 344.85987052 163.31355646 347.35546875 181.60546875 C346.90715956 184.62539772 346.05710462 185.38571479 343.6875 187.25 C342.76517578 188.00023437 342.76517578 188.00023437 341.82421875 188.765625 C338.93423332 190.72116118 336.22573668 191.2179307 332.8125 191.375 C332.09707031 191.42398438 331.38164063 191.47296875 330.64453125 191.5234375 C322.5031234 189.91199193 316.52194859 182.91120489 310.96875 177.2265625 C310.13339722 176.3845932 309.29804443 175.5426239 308.43737793 174.67514038 C305.7843296 171.9988235 303.14168859 169.31252611 300.5 166.625 C297.85661171 163.94636653 295.21102675 161.26995679 292.56262207 158.59628296 C290.92088853 156.93778533 289.2822638 155.27620228 287.64733887 153.61099243 C279.34357874 145.19488454 279.34357874 145.19488454 270 138 C277.60296186 152.50016354 290.42945288 163.56933918 302.04321289 174.87182617 C319.13896346 191.53673381 319.13896346 191.53673381 319.625 199.25 C318.91313345 203.52119931 318.20745734 205.12151264 315 208 C310.23581769 210.60681674 306.40531284 211.85347045 301 211 C295.54758677 207.99897417 291.28738579 203.41194665 286.984375 198.9921875 C284.51492491 196.51301517 281.90349587 194.24672941 279.24609375 191.97265625 C277.05362251 190.04709455 274.93805678 188.05232582 272.8203125 186.04541016 C266.34005672 179.94079097 259.44650937 174.86425209 252 170 C260.08803056 181.35496055 269.9330955 191.05963455 279.86865234 200.77270508 C281.32052074 202.19429641 282.76603201 203.62211825 284.2109375 205.05078125 C285.48396729 206.29855347 285.48396729 206.29855347 286.78271484 207.5715332 C289.81665052 210.89443104 291.96709485 213.42055304 292.0625 218 C290.35488934 222.82148892 286.9178546 224.99312633 282.5 227.3125 C279.465982 228.14685495 277.14371242 228.26522636 274 228 C271.5703125 226.55859375 271.5703125 226.55859375 269.125 224.4375 C268.17753906 223.62152344 267.23007812 222.80554688 266.25390625 221.96484375 C261.75619796 217.91311963 257.39248451 213.71547672 253.00585938 209.54443359 C244.00020497 200.10631712 244.00020497 200.10631712 233 195 C238.30222045 202.30728069 244.36531361 208.57464394 250.8125 214.875 C252.69730041 216.72327943 254.57778182 218.57574334 256.45703125 220.4296875 C257.6941687 221.63987549 257.6941687 221.63987549 258.95629883 222.87451172 C261.24145382 225.25111659 262.81218939 227.10789961 263.5 230.375 C262.72652629 234.435737 260.29835176 235.7165257 257 238 C251.19681446 239.90659073 244.4917364 239.92514891 238.875 237.5 C237.92625 237.005 236.9775 236.51 236 236 C238 231 238 231 239.1875 228.75 C240.39986934 224.64659608 240.09312418 221.11743442 239 217 C235.4789058 211.09364843 230.34100238 208.43258358 224 206 C222.88625 205.9175 221.7725 205.835 220.625 205.75 C218 205 218 205 216.92578125 203.125 C216.25900102 201.52261905 215.6161967 199.91007852 214.99609375 198.2890625 C213.6137039 195.11227642 211.61693062 193.22439102 209 191 C208.360625 190.443125 207.72125 189.88625 207.0625 189.3125 C202.30990771 186.28812309 198.51175765 185.98506885 193 186.3125 C187.54193973 186.41307851 187.54193973 186.41307851 185.2421875 184.66015625 C184.31557811 183.45026914 183.42411029 182.2127978 182.56640625 180.953125 C178.8369213 176.30289439 171.85842535 172.44075645 165.9140625 171.76171875 C160.45651731 171.58476763 158.15844921 172.20847278 154 176 C150.5753466 174.85844887 149.886659 173.88532371 147.6875 171.125 C144.11861841 166.97617516 141.26911359 164.27418372 135.578125 163.796875 C130.58115074 163.69966408 130.58115074 163.69966408 125.734375 164.74609375 C121.40291331 165.14830091 118.15825199 163.16362689 114.3125 161.3125 C112.6945973 160.56253469 111.07611189 159.81382514 109.45703125 159.06640625 C108.68439941 158.70562988 107.91176758 158.34485352 107.11572266 157.97314453 C103.91355031 156.50027828 100.65533379 155.19738401 97.36962891 153.92504883 C95.11767371 153.04593712 92.87711093 152.14247804 90.63671875 151.234375 C84.54543217 148.79696343 78.40652722 146.49074903 72.25219727 144.21826172 C70.96693482 143.74233445 69.68273507 143.26352668 68.3996582 142.78173828 C60.16676549 139.69110719 51.95109237 137.0460154 43.42651367 134.87695312 C38.19884648 133.5390279 33.03012087 132.03190376 27.8828125 130.4140625 C17.06366905 127.04418077 6.28638242 123.91898078 -4.78320312 121.49462891 C-7.17882531 120.96009911 -9.56575743 120.39445278 -11.953125 119.82421875 C-26.86648284 116.29453585 -41.89650553 113.58143921 -57 111 C-55.18745452 133.75150368 -51.47099283 156.23779148 -46.5 178.5 C-46.22776611 179.73210205 -45.95553223 180.9642041 -45.67504883 182.23364258 C-41.56113139 202.57041988 -41.56113139 202.57041988 -29 218 C-22.93304829 221.14245369 -17.01505711 222.8809425 -10.3125 224.0625 C-8.68335207 224.36458492 -7.05445099 224.66800374 -5.42578125 224.97265625 C-4.1406665 225.21072998 -4.1406665 225.21072998 -2.82958984 225.45361328 C1.58050879 226.30519229 5.96674811 227.26338154 10.35668945 228.21264648 C32.51339163 233.01170029 32.51339163 233.01170029 54.83178711 236.96142578 C59.71146266 237.74167415 64.50072901 238.75356633 69.3125 239.875 C95.63063753 245.94615589 122.65560702 249.52758363 149.43933105 252.86764526 C151.38217995 253.11028558 153.3244132 253.35784091 155.26660156 253.60571289 C178.85089783 256.46874656 202.33511912 257.33171443 226.06518555 257.26074219 C229.94496024 257.24923834 233.82446127 257.256017 237.70422649 257.26788712 C240.76302578 257.27518905 243.82176233 257.27278191 246.88056374 257.26763153 C248.3103317 257.26632373 249.7401059 257.26783831 251.16986656 257.27259064 C260.04943534 257.2957009 268.61469762 256.71151268 277.39155579 255.47966003 C283.07617845 254.72401961 288.77863834 254.40937523 294.5 254.0625 C336.3415139 251.26669032 377.76091146 242.63926264 418.7824707 234.22143555 C430.0058371 231.92992782 430.0058371 231.92992782 434.9140625 231.3671875 C437.86780457 231.33839754 437.86780457 231.33839754 439 230 C441.07690869 229.59091192 443.16246939 229.2258828 445.25 228.875 C452.90854378 227.5054529 460.48682101 225.81243152 468.05700684 224.02081299 C469.96773914 223.57010969 471.8808313 223.12944888 473.79394531 222.68896484 C486.68311605 219.61937653 486.68311605 219.61937653 496.64599609 211.31103516 C503.13262867 200.23954868 504.9715049 185.93828445 507.53979492 173.55688477 C508.18752726 170.4373687 508.84952948 167.32113731 509.51367188 164.20507812 C511.70385135 153.83983652 513.73837164 143.52581473 515 133 C514.0291748 133.10022461 513.05834961 133.20044922 512.05810547 133.30371094 C491.34340936 135.43565583 470.62013988 137.43657458 449.875 139.25 C448.87128357 139.33858276 447.86756714 139.42716553 446.83343506 139.51843262 C443.96993729 139.77049798 441.10613807 140.01876347 438.2421875 140.265625 C437.39382324 140.34043091 436.54545898 140.41523682 435.67138672 140.49230957 C431.43211675 140.85225978 427.25971851 141.08071226 423 141 C425.80446708 139.46891901 428.26999625 138.62140124 431.41015625 138.0625 C435.45834582 137.30286172 439.47756599 136.46688954 443.49609375 135.5625 C444.63240234 135.30726563 445.76871094 135.05203125 446.93945312 134.7890625 C449.26776741 134.26385928 451.59589332 133.73782022 453.92382812 133.2109375 C459.14432967 132.03965217 464.35520971 130.90794055 469.625 129.98046875 C475.32569534 128.97406821 480.93283614 127.65432222 486.5625 126.3125 C496.69019587 123.94019284 506.84253234 121.71469338 517.02682495 119.59994507 C518.54340285 119.28481226 520.05962334 118.96795428 521.57546997 118.64932251 C523.71201785 118.20103122 525.84987127 117.75962451 527.98828125 117.3203125 C529.22102783 117.06523926 530.45377441 116.81016602 531.72387695 116.54736328 C534.57006619 116.07183185 537.12550597 115.88495216 540 116 C538.12938682 136.872105 534.47067672 157.27195202 530.15286255 177.76071167 C529.76469609 179.60290215 529.37894397 181.44560329 528.99581909 183.28884888 C520.46840544 224.14616956 520.46840544 224.14616956 503.1953125 235.91015625 C494.53319644 240.99725932 485.72172933 243.11587053 476 245 C474.14828702 245.36773266 472.29673219 245.73626232 470.4453125 246.10546875 C467.37512924 246.71694189 464.30463144 247.32627085 461.23242188 247.92749023 C455.12093913 249.13411397 449.03415264 250.42012614 442.9609375 251.8046875 C442.27836884 251.96029648 441.59580017 252.11590546 440.89254761 252.27622986 C437.55835157 253.03889118 434.226401 253.80999152 430.89599609 254.58911133 C423.98506959 256.18522999 417.11841173 257.50186017 410.09960938 258.51928711 C405.14713907 259.2873569 400.2698272 260.36932919 395.375 261.4375 C386.71264921 263.28046787 378.06651996 264.88645902 369.30859375 266.19140625 C365.2503311 266.79703481 361.20539483 267.46512389 357.16015625 268.15234375 C343.32728658 270.48631435 329.50206251 272.54043393 315.5625 274.125 C313.64244141 274.34434204 313.64244141 274.34434204 311.68359375 274.56811523 C308.06005853 274.97290194 304.43351484 275.34378794 300.80587769 275.70977783 C298.75750211 275.92164879 296.71001981 276.14220774 294.66311646 276.36785889 C274.24884479 278.61226834 254.09218658 279.49929843 233.56021118 279.38631821 C231.27044183 279.37478822 228.98071066 279.36873871 226.69091797 279.36392212 C204.02707195 279.30765942 181.51741025 278.77859577 159 276 C157.9063916 275.86658203 156.8127832 275.73316406 155.68603516 275.59570312 C151.00585828 275.0096788 146.33646113 274.37490059 141.671875 273.67578125 C137.31176127 273.02532347 132.9483053 272.56078378 128.5625 272.125 C119.952879 271.23650567 111.41792455 269.8717295 102.875 268.5 C101.85891159 268.33833344 101.85891159 268.33833344 100.82229614 268.17340088 C94.53731042 267.16933644 88.31652902 266.1607126 82.16699219 264.51416016 C77.274033 263.35321243 72.28203621 262.63542639 67.32528687 261.79980469 C48.30648127 258.57656362 29.45609643 254.63334115 10.59449768 250.60371399 C5.16359665 249.44721184 -0.27415358 248.33592197 -5.72265625 247.265625 C-7.04389231 247.00339815 -8.36510094 246.74103302 -9.6862793 246.47851562 C-12.03360866 246.01492235 -14.3825919 245.55957048 -16.73364258 245.11523438 C-32.23102864 242.02603854 -46.56536846 236.21818558 -56 223 C-61.49120856 214.55077651 -63.58142427 204.65116718 -66 195 C-66.22800293 194.11973145 -66.45600586 193.23946289 -66.69091797 192.33251953 C-71.52834864 173.52397816 -74.56074044 154.4393746 -77.58203125 135.2734375 C-77.71093246 134.45664017 -77.83983368 133.63984283 -77.97264099 132.79829407 C-79.38375238 123.72862637 -80.22991041 114.87696863 -80.3125 105.6875 C-80.34150391 104.62337891 -80.37050781 103.55925781 -80.40039062 102.46289062 C-80.52369853 86.91660951 -72.92142942 73.31869198 -62.37890625 62.1875 C-52.63051018 53.22345764 -40.01461291 50.23912642 -27.57348633 46.85742188 C-15.87068064 43.73532353 -15.87068064 43.73532353 -6 37 C-4.64560332 34.29120665 -4.93498549 31.99066732 -5 29 C-8.04172719 28.9728955 -11.08320997 28.95311036 -14.125 28.9375 C-14.9809375 28.92912109 -15.836875 28.92074219 -16.71875 28.91210938 C-21.29555906 28.89450626 -25.48207213 29.22864646 -30 30 C-33.52071345 30.24451436 -37.03433592 30.3211349 -40.5625 30.375 C-41.49513672 30.41238281 -42.42777344 30.44976562 -43.38867188 30.48828125 C-48.06537655 30.54828174 -50.26183012 30.55806016 -54.08984375 27.6640625 C-58.12596631 22.03495087 -57.54596078 15.6702165 -57 9 C-55.30265194 2.39439703 -50.68205754 -2.43744011 -45 -6 C-27.8698814 -13.50272637 -15.03967528 -9.70234897 0 0 Z " fill="#98C203" transform="translate(282,288)"/>
<path d="M0 0 C1.24011337 -0.00216774 1.24011337 -0.00216774 2.50527954 -0.00437927 C30.5662316 -0.04393617 58.30806115 0.86407475 86.1875 4.3125 C86.9174115 4.40162659 87.647323 4.49075317 88.39935303 4.58258057 C122.15982336 8.73900346 145.49354417 16.05861524 167.1875 43.3125 C168.80225987 45.30414029 170.42199788 47.29166853 172.04199219 49.27905273 C176.75833862 55.06662193 181.45497984 60.86948102 186.109375 66.70703125 C187.72103124 68.7276604 189.33584858 70.74559439 190.953125 72.76171875 C195.95862921 79.00436496 200.94365989 85.26105268 205.875 91.5625 C210.56131332 97.55009758 215.34324043 103.45154398 220.1875 109.3125 C219.754375 108.33667969 219.32125 107.36085938 218.875 106.35546875 C218.3122129 105.0704382 217.74972866 103.78527498 217.1875 102.5 C216.90132812 101.85740234 216.61515625 101.21480469 216.3203125 100.55273438 C215.05038959 97.63493531 214.1875 95.52984286 214.1875 92.3125 C216.2421875 90.76953125 216.2421875 90.76953125 219.0625 89.125 C223.05001239 86.71311591 226.63851718 84.20584712 230.1875 81.1875 C239.42088579 73.57919011 249.33536679 70.3202916 261.1875 71.3125 C269.96712442 73.22068414 277.88899836 75.53801864 283 83.3125 C285.98896507 88.26508938 286.38304111 92.48208003 286.5 98.25 C286.53738281 99.45527344 286.57476563 100.66054688 286.61328125 101.90234375 C286.10733723 105.95453757 285.07905228 107.4817159 282.1875 110.3125 C276.46883259 114.39550555 266.58823668 112.77769511 259.875 111.859375 C257.78869665 111.49427191 255.70275812 111.12707812 253.6171875 110.7578125 C247.16795637 109.9204408 240.67767538 110.16253446 234.1875 110.3125 C234.60552756 116.09469082 234.60552756 116.09469082 237.9375 120.5 C242.50459924 123.98493516 247.61877444 125.21116444 253.08691406 126.71582031 C289.29276062 137.00023326 289.29276062 137.00023326 299.30957031 154.24414062 C304.12831898 162.95352128 308.59649545 171.5886639 308.3125 181.8125 C308.29445313 182.6684375 308.27640625 183.524375 308.2578125 184.40625 C308.22300781 185.34984375 308.22300781 185.34984375 308.1875 186.3125 C298.48397537 189.43086788 288.69610278 192.07614681 278.83105469 194.62402344 C276.10545143 195.33386839 273.38451511 196.05974158 270.6640625 196.7890625 C259.9113935 199.65785577 249.14426196 202.29303213 238.25097656 204.57617188 C233.655249 205.54139237 229.09080534 206.57022793 224.5390625 207.7265625 C216.97775026 209.64190091 209.3658112 211.31862588 201.75 213 C200.98192017 213.17002533 200.21384033 213.34005066 199.42248535 213.51522827 C187.88886696 216.06833987 176.35074426 218.60125952 164.80734253 221.10977173 C163.25569909 221.44711506 161.70419987 221.78512259 160.15286255 222.12387085 C157.96178972 222.60187892 155.77011989 223.0770207 153.578125 223.55078125 C152.53396927 223.77771416 152.53396927 223.77771416 151.46871948 224.00923157 C147.89476674 224.7749593 144.32054322 225.47691554 140.71704102 226.08984375 C139.6285788 226.27827095 139.6285788 226.27827095 138.51812744 226.47050476 C136.52281166 226.81019246 134.5247777 227.13380237 132.52661133 227.45629883 C127.41839241 228.76612728 124.68877349 231.5570357 121.1875 235.3125 C115.20176132 240.39356182 115.20176132 240.39356182 112.18359375 240.15234375 C109.72413455 239.11754193 108.68267719 237.93991497 107 235.875 C106.38640625 235.14410156 105.7728125 234.41320312 105.140625 233.66015625 C104.17382812 232.49806641 104.17382812 232.49806641 103.1875 231.3125 C97.74293355 225.00175252 92.0054002 219.02782114 86.125 213.125 C85.46443604 212.45984375 84.80387207 211.7946875 84.12329102 211.109375 C80.89194045 207.8880311 77.61525488 204.77398596 74.16015625 201.79296875 C70.13575055 198.3192867 66.40780323 194.60662648 62.6875 190.8125 C58.30454923 186.38216598 53.92295969 182.06119996 49.140625 178.05859375 C47.03229593 176.17374756 45.08637185 174.16087236 43.13085938 172.11938477 C36.02171328 164.75891737 31.49814909 161.16315111 21 160.9375 C7.74094874 161.33289914 -6.68015619 162.80590664 -16.8125 172.3125 C-18.64656146 174.50100929 -20.36231835 176.7539981 -22.07421875 179.0390625 C-27.86377503 186.6110215 -35.16460687 192.58530033 -44.8125 194.3125 C-47.26722825 194.48150499 -49.72740297 194.57835145 -52.1875 194.625 C-53.47398437 194.66238281 -54.76046875 194.69976562 -56.0859375 194.73828125 C-60.50568538 194.23329957 -62.56466118 193.34937648 -65.8125 190.3125 C-66.96484375 186.90234375 -66.96484375 186.90234375 -66.8125 183.3125 C-65.06640625 180.62890625 -65.06640625 180.62890625 -62.375 177.875 C-55.7621165 170.74239881 -50.59975081 162.75590546 -45.29711914 154.62719727 C-44.64348389 153.62615967 -43.98984863 152.62512207 -43.31640625 151.59375 C-42.44737671 150.24893555 -42.44737671 150.24893555 -41.56079102 148.87695312 C-30.60328006 132.80410086 -1.61616772 121.36034837 17.1875 117.3125 C30.79744164 115.33420431 45.74681595 119.61255187 59.140625 122.0234375 C76.92898933 124.98816489 94.00390274 123.27768954 111.58251953 119.97167969 C118.00445386 118.79741295 124.44935955 117.76008795 130.89117432 116.70141602 C134.77886052 116.06042612 138.66480082 115.40905072 142.55078125 114.7578125 C146.62885753 114.07448534 150.70701116 113.39189702 154.78662109 112.71777344 C166.74105836 110.74239634 178.49319957 108.50339765 190.1875 105.3125 C189.02734375 103.97058594 189.02734375 103.97058594 187.84375 102.6015625 C182.53217858 96.44137153 177.28838084 90.25519528 172.24609375 83.87109375 C169.7793794 80.80525333 167.23863904 77.80812613 164.6875 74.8125 C161.51187926 71.08002708 158.36641478 67.33350062 155.3125 63.5 C154.68601562 62.71367187 154.05953125 61.92734375 153.4140625 61.1171875 C152.17727622 59.55927074 150.94152746 58.00052293 149.70996094 56.43847656 C133.55862516 35.99436242 118.97942986 28.33844079 93.03959656 25.28894043 C89.00242407 24.83822938 84.962841 24.41531819 80.92138672 24.00488281 C77.85125795 23.69145676 74.78313134 23.36215824 71.71484375 23.03125 C46.25279309 20.35114145 20.76521644 20.07186304 -4.8125 20.0625 C-5.92540405 20.06161629 -5.92540405 20.06161629 -7.06079102 20.06071472 C-76.96931507 16.97880438 -76.96931507 16.97880438 -138.77734375 41.1015625 C-142.35456278 44.98775438 -145.54414267 49.16773159 -148.75 53.359375 C-152.03729224 57.64320859 -155.48332673 61.78793978 -158.9375 65.9375 C-164.44979884 72.5800454 -169.71071769 79.35053631 -174.8125 86.3125 C-162.52185094 92.21564425 -149.9033768 97.34280516 -137.3125 102.5625 C-135.10146935 103.48154677 -132.89053112 104.40081591 -130.6796875 105.3203125 C-126.6470263 106.99642503 -122.6141825 108.67209013 -118.58007812 110.34472656 C-117.777677 110.67748596 -116.97527588 111.01024536 -116.14855957 111.35308838 C-113.7092003 112.35492483 -111.26240252 113.33676273 -108.8125 114.3125 C-112.74804152 115.62434717 -114.52443701 114.71829401 -118.47680664 113.50170898 C-119.15058853 113.29691422 -119.82437042 113.09211945 -120.51856995 112.88111877 C-122.7559409 112.19869522 -124.98922102 111.5037801 -127.22265625 110.80859375 C-128.78928971 110.32759107 -130.35614227 109.84730148 -131.92320251 109.36769104 C-135.22104294 108.35644274 -138.51706641 107.33954438 -141.81176758 106.31811523 C-145.98116219 105.02552959 -150.153288 103.74208219 -154.32666874 102.46243191 C-158.35545425 101.22675675 -162.3828894 99.98670797 -166.41015625 98.74609375 C-167.15489763 98.51696226 -167.89963902 98.28783077 -168.66694832 98.05175591 C-179.77005159 94.63076115 -190.80348944 91.02490244 -201.8125 87.3125 C-200.4511092 84.51208672 -199.0517539 82.20287592 -197.0546875 79.80859375 C-196.51553711 79.15592529 -195.97638672 78.50325684 -195.42089844 77.83081055 C-194.84887695 77.14414307 -194.27685547 76.45747559 -193.6875 75.75 C-189.15929616 70.25368456 -184.8348502 64.68700688 -180.69921875 58.88671875 C-177.2666827 54.20340352 -173.5190725 49.77939507 -169.8125 45.3125 C-168.31219982 43.45857621 -166.81219886 41.60441024 -165.3125 39.75 C-163.81733128 37.93351252 -162.31736874 36.12095965 -160.8125 34.3125 C-160.08160156 33.43207031 -159.35070312 32.55164063 -158.59765625 31.64453125 C-135.91688215 5.29656696 -97.53867732 4.32912128 -65.29077148 1.9074707 C-62.13235523 1.68859168 -58.97299887 1.49890952 -55.8125 1.3125 C-54.50482666 1.22637451 -53.19715332 1.14024902 -51.84985352 1.05151367 C-34.58761585 -0.00921757 -17.28838099 0.02374046 0 0 Z " fill="#023352" transform="translate(512.8125,206.6875)"/>
<path d="M0 0 C12.87 0 25.74 0 39 0 C43.49928673 8.99857347 43.49928673 8.99857347 45.1484375 13.46875 C45.51453125 14.45359375 45.880625 15.4384375 46.2578125 16.453125 C46.62648438 17.45859375 46.99515625 18.4640625 47.375 19.5 C48.11189435 21.48961475 48.84887528 23.47919743 49.5859375 25.46875 C49.97265625 26.51659668 50.359375 27.56444336 50.7578125 28.64404297 C55.49351737 41.4382645 60.32975666 54.19552001 65.14892578 66.95846558 C65.8917487 68.92606101 66.6342545 70.89377619 67.37646484 72.86160278 C72.78420503 87.20282043 72.78420503 87.20282043 78.296875 101.50390625 C78.76319336 102.70225098 79.22951172 103.9005957 79.70996094 105.13525391 C80.54128997 107.26329262 81.37750814 109.38943105 82.21972656 111.51318359 C82.5803418 112.43566895 82.94095703 113.3581543 83.3125 114.30859375 C83.77076172 115.46572876 83.77076172 115.46572876 84.23828125 116.64624023 C85 119 85 119 86 125 C73.46 125 60.92 125 48 125 C47.01 121.7825 46.02 118.565 45 115.25 C44.68675781 114.24227539 44.37351562 113.23455078 44.05078125 112.19628906 C43.80714844 111.39416992 43.56351563 110.59205078 43.3125 109.765625 C43.06113281 108.94868164 42.80976562 108.13173828 42.55078125 107.29003906 C42 105 42 105 42 101 C27.48 101 12.96 101 -2 101 C-2.99 104.63 -3.98 108.26 -5 112 C-6.32 116.29 -7.64 120.58 -9 125 C-21.54 125 -34.08 125 -47 125 C-46.21104555 121.05522775 -45.31544782 117.95974707 -43.859375 114.26953125 C-43.41013672 113.12307129 -42.96089844 111.97661133 -42.49804688 110.79541016 C-42.25530029 110.18086975 -42.01255371 109.56632935 -41.76245117 108.9331665 C-40.70141808 106.24295669 -39.65323264 103.54779555 -38.60415649 100.85290527 C-37.75003145 98.65916824 -36.8944545 96.46600199 -36.03857422 94.27294922 C-30.88936259 81.07403639 -25.76474058 67.86976984 -20.84082031 54.5847168 C-19.30024624 50.43312463 -17.73067959 46.30061575 -16.0703125 42.1953125 C-13.57889778 36.01345183 -11.29652856 29.75630053 -9 23.5 C-8.14714022 21.17660319 -7.29299339 18.85367838 -6.4375 16.53125 C-6.06496094 15.51611328 -5.69242188 14.50097656 -5.30859375 13.45507812 C-3.60086282 8.94615869 -1.79065388 4.47663469 0 0 Z " fill="#033250" transform="translate(558,611)"/>
<path d="M0 0 C31.35 0 62.7 0 95 0 C95 9.24 95 18.48 95 28 C75.2 28 55.4 28 35 28 C35 34.6 35 41.2 35 48 C52.82 48 70.64 48 89 48 C89 56.58 89 65.16 89 74 C71.18 74 53.36 74 35 74 C35 81.59 35 89.18 35 97 C55.79 97 76.58 97 98 97 C98 106.24 98 115.48 98 125 C65.66 125 33.32 125 0 125 C0 83.75 0 42.5 0 0 Z " fill="#96C104" transform="translate(392,611)"/>
<path d="M0 0 C30.03 0 60.06 0 91 0 C91 9.24 91 18.48 91 28 C72.52 28 54.04 28 35 28 C35 35.26 35 42.52 35 50 C51.5 50 68 50 85 50 C85 58.91 85 67.82 85 77 C68.5 77 52 77 35 77 C35 92.84 35 108.68 35 125 C23.45 125 11.9 125 0 125 C0 83.75 0 42.5 0 0 Z " fill="#033250" transform="translate(670,611)"/>
<path d="M0 0 C11.55 0 23.1 0 35 0 C35 31.68 35 63.36 35 96 C55.13 96 75.26 96 96 96 C96 105.57 96 115.14 96 125 C64.32 125 32.64 125 0 125 C0 83.75 0 42.5 0 0 Z " fill="#98C204" transform="translate(267,611)"/>
<path d="M0 0 C0.33 0.66 0.66 1.32 1 2 C2.97501035 2.73741342 4.98105399 3.39312155 7 4 C8.93828738 4.62255384 10.87578347 5.24757644 12.8125 5.875 C13.76769531 6.18179688 14.72289062 6.48859375 15.70703125 6.8046875 C18.21073868 7.71350657 20.50910508 8.68988566 22.91015625 9.81640625 C28.91418255 12.52980657 35.2009208 14.38419575 41.46987915 16.37359619 C60.86857311 22.5745636 80.43727833 29.40967891 96 43 C96.96808594 43.82113281 97.93617188 44.64226563 98.93359375 45.48828125 C103.92692481 49.83060937 103.92692481 49.83060937 106 52 C106 52.66 106 53.32 106 54 C95.77 54 85.54 54 75 54 C74.01 50.7825 73.02 47.565 72 44.25 C71.68675781 43.24227539 71.37351562 42.23455078 71.05078125 41.19628906 C70.80714844 40.39416992 70.56351563 39.59205078 70.3125 38.765625 C70.06113281 37.94868164 69.80976562 37.13173828 69.55078125 36.29003906 C69 34 69 34 69 30 C54.48 30 39.96 30 25 30 C24.01 33.63 23.02 37.26 22 41 C20.68 45.29 19.36 49.58 18 54 C5.46 54 -7.08 54 -20 54 C-19.21645197 50.08225985 -18.3401665 47.0245326 -16.89453125 43.36328125 C-16.44674316 42.22068848 -15.99895508 41.0780957 -15.53759766 39.90087891 C-15.29140686 39.27715393 -15.04521606 38.65342896 -14.79156494 38.01080322 C-13.64178307 35.09002569 -12.50814705 32.163038 -11.37301636 29.23654175 C-9.81430132 25.2189796 -8.25042655 21.20342518 -6.6875 17.1875 C-6.03578451 15.51237866 -5.38409165 13.8372485 -4.73242188 12.16210938 C-3.15520822 8.10797159 -1.5776905 4.05395224 0 0 Z " fill="#99C205" transform="translate(531,682)"/>
<path d="M0 0 C31.35 0 62.7 0 95 0 C95 9.24 95 18.48 95 28 C74.57098806 28.74567077 56.68149604 28.39577111 37.03759766 21.96240234 C31.89196564 20.33211128 26.66607095 19.02207712 21.4375 17.6875 C20.05449707 17.32470947 20.05449707 17.32470947 18.64355469 16.95458984 C13.71594505 15.66497751 8.78364352 14.48095537 3.79711914 13.44067383 C2 13 2 13 0 12 C0 8.04 0 4.08 0 0 Z " fill="#03324F" transform="translate(392,611)"/>
<path d="M0 0 C5.46404528 1.42282554 10.07023553 4.92761892 13.16015625 9.5625 C14.45847322 18.3622039 10.73982284 25.22794693 6.16015625 32.5625 C3.484375 35.421875 3.484375 35.421875 1.16015625 37.5625 C0.83015625 37.8925 0.50015625 38.2225 0.16015625 38.5625 C-4.72187049 39.12333546 -8.72432389 39.07894438 -13.21484375 37 C-17.33723508 33.17206519 -19.59697466 29.97095184 -20.16796875 24.30859375 C-19.77139661 19.78106181 -18.40254197 16.85149099 -16.21484375 12.9375 C-15.88355469 12.29554688 -15.55226563 11.65359375 -15.2109375 10.9921875 C-11.89442033 4.88478984 -7.63603907 -0.47081551 0 0 Z " fill="#043453" transform="translate(448.83984375,465.4375)"/>
<path d="M0 0 C3.35517303 0.57935625 5.46139823 2.2304906 8.05859375 4.35546875 C8.84234375 4.89171875 9.62609375 5.42796875 10.43359375 5.98046875 C12.63028483 9.19101726 12.8541825 11.50321972 12.7109375 15.359375 C10.90567455 23.65061264 5.32260809 31.79982437 -0.94140625 37.35546875 C-5.0506665 38.72522217 -8.6537719 39.10804869 -12.94140625 38.35546875 C-16.55824824 36.38650116 -20.06821188 34.10185748 -21.94140625 30.35546875 C-23.14392759 22.28139693 -18.62811133 16.13045943 -14.08984375 9.75390625 C-12.42023987 7.57276417 -10.73282307 5.43750282 -8.94140625 3.35546875 C-8.45671875 2.78699219 -7.97203125 2.21851563 -7.47265625 1.6328125 C-5.18562232 -0.27499387 -2.87669069 -0.11084496 0 0 Z " fill="#043352" transform="translate(479.94140625,479.64453125)"/>
<path d="M0 0 C6 0 6 0 8.5 2.46484375 C9.35156019 3.60905375 10.18374721 4.7678408 11 5.9375 C11.94265119 7.21420884 12.88810505 8.48885176 13.8359375 9.76171875 C14.33834961 10.44411621 14.84076172 11.12651367 15.35839844 11.82958984 C18.31743863 15.74182472 21.48167197 19.48549431 24.625 23.25 C25.8273651 24.69117166 27.02802303 26.13377021 28.2265625 27.578125 C28.73783691 28.19075195 29.24911133 28.80337891 29.77587891 29.43457031 C31 31 31 31 32 33 C32.33 22.11 32.66 11.22 33 0 C34.98 0 36.96 0 39 0 C39 15.18 39 30.36 39 46 C34 46 34 46 32.27416992 44.59814453 C31.76474854 43.94958496 31.25532715 43.30102539 30.73046875 42.6328125 C30.15538574 41.91641602 29.58030273 41.20001953 28.98779297 40.46191406 C28.39369629 39.69073242 27.79959961 38.91955078 27.1875 38.125 C26.5702002 37.34866211 25.95290039 36.57232422 25.31689453 35.77246094 C24.08978957 34.22674038 22.86893002 32.67603841 21.65478516 31.12011719 C19.58923423 28.47372529 17.48323511 25.8624646 15.375 23.25 C14.24926513 21.83391722 13.124231 20.417277 12 19 C10.68 17.35 9.36 15.7 8 14 C7.67 24.56 7.34 35.12 7 46 C4.69 46 2.38 46 0 46 C0 30.82 0 15.64 0 0 Z " fill="#093754" transform="translate(484,771)"/>
<path d="M0 0 C1.98 0 3.96 0 6 0 C8.57095904 6.06578472 11.1335971 12.13503445 13.69042969 18.20678711 C14.56155403 20.27270299 15.43459317 22.33781255 16.30957031 24.40209961 C17.56557206 27.36623526 18.81470078 30.33318496 20.0625 33.30078125 C20.45622803 34.2258699 20.84995605 35.15095856 21.25561523 36.1040802 C21.61598877 36.96474594 21.9763623 37.82541168 22.34765625 38.7121582 C22.66742432 39.46938675 22.98719238 40.2266153 23.31665039 41.00679016 C24 43 24 43 24 46 C21.69 46 19.38 46 17 46 C14.525 40.06 14.525 40.06 12 34 C5.73 34 -0.54 34 -7 34 C-8.65 37.96 -10.3 41.92 -12 46 C-14.31 46 -16.62 46 -19 46 C-16.54008558 38.10103605 -13.353481 30.58334766 -10.0625 23 C-9.53157456 21.76836985 -9.00097376 20.53659971 -8.47070312 19.3046875 C-5.686771 12.85181855 -2.86899374 6.41548479 0 0 Z " fill="#0D3856" transform="translate(650,771)"/>
<path d="M0 0 C1.98 0 3.96 0 6 0 C7.92194004 4.51602137 9.8424522 9.03264646 11.76171875 13.54980469 C12.4130319 15.08219263 13.06471575 16.61442307 13.71679688 18.14648438 C15.8220268 23.09312893 17.91739556 28.04378652 20 33 C20.44408203 34.05477539 20.88816406 35.10955078 21.34570312 36.19628906 C21.71115234 37.0828418 22.07660156 37.96939453 22.453125 38.8828125 C22.91187012 39.99100342 22.91187012 39.99100342 23.37988281 41.12158203 C24 43 24 43 24 46 C21.69 46 19.38 46 17 46 C14.525 40.06 14.525 40.06 12 34 C5.73 33.67 -0.54 33.34 -7 33 C-7.474375 34.588125 -7.94875 36.17625 -8.4375 37.8125 C-9.25720605 40.55673329 -10.09422494 43.28267481 -11 46 C-13.31 46 -15.62 46 -18 46 C-17.41050314 40.26410195 -15.25132379 35.52111803 -12.9375 30.3125 C-12.12437342 28.45079438 -11.31188841 26.58880842 -10.5 24.7265625 C-9.87931641 23.30972168 -9.87931641 23.30972168 -9.24609375 21.86425781 C-7.27002312 17.32208292 -5.3527032 12.75559812 -3.4375 8.1875 C-3.09130615 7.36354736 -2.7451123 6.53959473 -2.38842773 5.69067383 C-1.59160482 3.79406824 -0.79569004 1.89708115 0 0 Z " fill="#0C3654" transform="translate(424,771)"/>
<path d="M0 0 C2.31 0 4.62 0 7 0 C7.33 6.93 7.66 13.86 8 21 C9.33933594 19.55625 10.67867187 18.1125 12.05859375 16.625 C13.38755704 15.2334154 14.71669691 13.84198889 16.05053711 12.45507812 C17.41659336 11.02193338 18.75835756 9.56575995 20.09960938 8.109375 C26.681602 1.30879221 26.681602 1.30879221 30.66845703 0.375 C33.16015625 0.375 33.16015625 0.375 37 1 C32.62843186 6.49568566 27.71055035 11.14720517 22.49536133 15.82324219 C19.96189284 18.11000449 17.90351365 20.14472953 16 23 C18.95090609 25.97560463 21.90506747 28.94792678 24.86230469 31.91723633 C25.86809203 32.92805585 26.87298048 33.93977062 27.87695312 34.95239258 C29.31926483 36.40681856 30.76476672 37.85800615 32.2109375 39.30859375 C33.08024902 40.18314209 33.94956055 41.05769043 34.84521484 41.95874023 C36.82809002 44.03506773 36.82809002 44.03506773 39 45 C39 45.66 39 46.32 39 47 C35.45687556 47.57147168 33.42665711 47.83515277 30 47 C26.23927741 44.0487603 23.19618572 40.53980295 20 37 C18.92028248 36.0546578 17.82075479 35.1304518 16.6875 34.25 C14 32 14 32 9 26 C8.67 32.93 8.34 39.86 8 47 C5.36 47 2.72 47 0 47 C0 31.49 0 15.98 0 0 Z " fill="#204661" transform="translate(564,770)"/>
<path d="M0 0 C4.13787177 1.74710141 6.79711191 4.0837545 9 8 C9.80923806 13.28048268 9.78294449 18.26799794 7.25 23.0625 C4.09576138 27.18053375 4.09576138 27.18053375 1 28 C-2.7642233 28.49098565 -4.68296283 28.15217784 -8.125 26.5 C-12.29797863 22.87132293 -14.47323734 19.17670132 -15.3828125 13.69140625 C-15.65360541 8.33873304 -14.55582594 5.18332463 -11 1 C-7.54849768 -0.72575116 -3.7810938 -0.36104194 0 0 Z " fill="#073352" transform="translate(419,458)"/>
<path d="M0 0 C3.8026029 2.0050088 5.61790841 3.42686262 8 7 C8.2384199 13.91417717 5.78238819 17.10097172 1.203125 22.1171875 C-2.17261703 25.00213016 -5.05782735 25.89721753 -9.4375 26.375 C-13.91452857 25.90373383 -16.81508549 24.18491451 -20 21 C-20.54419466 15.2682874 -19.47702258 12.3521023 -16.1875 7.6875 C-15.12595703 6.14642578 -15.12595703 6.14642578 -14.04296875 4.57421875 C-9.98844739 -0.53463322 -6.13269028 -0.86862337 0 0 Z " fill="#073351" transform="translate(508,501)"/>
<path d="M0 0 C2 1 2 1 3.23681641 4.20288086 C3.69972986 5.62094918 4.15404912 7.04184045 4.6015625 8.46484375 C4.8428891 9.21335098 5.0842157 9.96185822 5.33285522 10.73304749 C5.84232658 12.31820597 6.34813705 13.90454498 6.85058594 15.49194336 C7.62146446 17.92633495 8.40345957 20.35692877 9.1875 22.78710938 C9.68034508 24.3253103 10.17255401 25.86371522 10.6640625 27.40234375 C11.0155687 28.49771706 11.0155687 28.49771706 11.37417603 29.61521912 C13 34.76654668 13 34.76654668 13 37 C4.75 37 -3.5 37 -12 37 C-8.625 24.625 -8.625 24.625 -6.73828125 19.23828125 C-6.34189453 18.10068359 -5.94550781 16.96308594 -5.53710938 15.79101562 C-5.13298828 14.64310547 -4.72886719 13.49519531 -4.3125 12.3125 C-3.68891602 10.52682617 -3.68891602 10.52682617 -3.05273438 8.70507812 C-2.03847718 5.80220407 -1.02084668 2.90056187 0 0 Z " fill="#EFF2F4" transform="translate(577,649)"/>
<path d="M0 0 C1.98 0 3.96 0 6 0 C6 13.2 6 26.4 6 40 C13.26 40 20.52 40 28 40 C28 41.98 28 43.96 28 46 C18.76 46 9.52 46 0 46 C0 30.82 0 15.64 0 0 Z " fill="#09334F" transform="translate(348,771)"/>
<path d="M0 0 C1.98 0 3.96 0 6 0 C6.16789217 3.27077164 6.33410238 6.54162664 6.5 9.8125 C6.54769531 10.74126953 6.59539063 11.67003906 6.64453125 12.62695312 C6.68964844 13.51962891 6.73476563 14.41230469 6.78125 15.33203125 C6.82314453 16.15421143 6.86503906 16.9763916 6.90820312 17.82348633 C7.05335404 21.26503007 6.94024842 24.66712801 6.78125 28.10546875 C6.73613281 29.08837891 6.69101562 30.07128906 6.64453125 31.08398438 C6.57298828 32.62022461 6.57298828 32.62022461 6.5 34.1875 C6.45230469 35.22326172 6.40460937 36.25902344 6.35546875 37.32617188 C6.23758988 39.88414342 6.11907595 42.44208395 6 45 C4.02 45 2.04 45 0 45 C0 30.15 0 15.3 0 0 Z " fill="#023352" transform="translate(565,771)"/>
<path d="M0 0 C2.60332156 3.16063087 4.14038576 6.3431652 5.6875 10.125 C6.34298828 11.70667969 6.34298828 11.70667969 7.01171875 13.3203125 C8 16 8 16 8 18 C3.38 18 -1.24 18 -6 18 C-4.76281145 11.50476013 -2.89324549 5.94098468 0 0 Z " fill="#E9EEF0" transform="translate(652,781)"/>
<path d="M0 0 C2.60332156 3.16063087 4.14038576 6.3431652 5.6875 10.125 C6.34298828 11.70667969 6.34298828 11.70667969 7.01171875 13.3203125 C8 16 8 16 8 18 C3.38 18 -1.24 18 -6 18 C-5.19950264 13.19701584 -4.32420375 9.97893173 -2.4375 5.625 C-1.98246094 4.56539062 -1.52742188 3.50578125 -1.05859375 2.4140625 C-0.70925781 1.61742187 -0.35992187 0.82078125 0 0 Z " fill="#E5EAEE" transform="translate(426,781)"/>
<path d="M0 0 C-0.14049518 1.47968324 -0.28754826 2.95874516 -0.4375 4.4375 C-0.51871094 5.26121094 -0.59992187 6.08492187 -0.68359375 6.93359375 C-1 9 -1 9 -2 10 C-4.33297433 10.04092937 -6.66705225 10.04241723 -9 10 C-8.05739369 5.85253222 -7.36312101 4.28160405 -3.9375 1.625 C-1 0 -1 0 0 0 Z " fill="#163F5C" transform="translate(640,807)"/>
<path d="M0 0 C7.68391117 -0.58996705 13.182163 0.77887186 20.125 4 C20.98609375 4.3815625 21.8471875 4.763125 22.734375 5.15625 C24.83085388 6.08801839 26.9183061 7.03576605 29 8 C25.23028765 9.25657078 23.7747462 8.53833416 20.01953125 7.34765625 C18.85615234 6.98349609 17.69277344 6.61933594 16.49414062 6.24414062 C15.27919922 5.85419922 14.06425781 5.46425781 12.8125 5.0625 C11.58595703 4.67642578 10.35941406 4.29035156 9.09570312 3.89257812 C6.06123718 2.93619003 3.02958837 1.97170703 0 1 C0 0.67 0 0.34 0 0 Z " fill="#314E65" transform="translate(375,313)"/>
<path d="M0 0 C1.77503906 0.71349609 1.77503906 0.71349609 3.5859375 1.44140625 C4.77445312 1.91449219 5.96296875 2.38757813 7.1875 2.875 C8.10273438 3.24753906 9.01796875 3.62007813 9.9609375 4.00390625 C9.9609375 4.66390625 9.9609375 5.32390625 9.9609375 6.00390625 C7.68889948 5.72177735 5.41832066 5.42787769 3.1484375 5.12890625 C1.25158203 4.88527344 1.25158203 4.88527344 -0.68359375 4.63671875 C-4.0390625 4.00390625 -4.0390625 4.00390625 -7.0390625 2.00390625 C-6.3790625 2.00390625 -5.7190625 2.00390625 -5.0390625 2.00390625 C-5.0390625 1.34390625 -5.0390625 0.68390625 -5.0390625 0.00390625 C-3.0390625 -0.99609375 -3.0390625 -0.99609375 0 0 Z " fill="#123756" transform="translate(372.0390625,307.99609375)"/>
<path d="M0 0 C-3.37097383 1.49821059 -5.20442119 2 -9 2 C-8.34 2.66 -7.68 3.32 -7 4 C-13.6 4.33 -20.2 4.66 -27 5 C-23.73600586 3.36800293 -21.76719823 2.62306957 -18.3125 2 C-14.16605487 1.23440821 -10.09182538 0.31690725 -6.0078125 -0.73046875 C-3.73951234 -1.03496819 -2.16683394 -0.68503046 0 0 Z " fill="#A0C637" transform="translate(732,424)"/>
<path d="M0 0 C0.99 0.33 1.98 0.66 3 1 C2.34 1 1.68 1 1 1 C1 1.66 1 2.32 1 3 C1.99 3.33 2.98 3.66 4 4 C-0.62 4 -5.24 4 -10 4 C-9.67 3.34 -9.34 2.68 -9 2 C-8.2575 2.04125 -7.515 2.0825 -6.75 2.125 C-4.01480713 2.18720445 -4.01480713 2.18720445 -1.875 0.9375 C-1.25625 0.628125 -0.6375 0.31875 0 0 Z " fill="#91BB11" transform="translate(732,423)"/>
<path d="M0 0 C0 3.96130371 -1.34877125 4.82914401 -4 7.6875 C-4.7425 8.49574219 -5.485 9.30398437 -6.25 10.13671875 C-6.8275 10.75160156 -7.405 11.36648437 -8 12 C-8.66 11.67 -9.32 11.34 -10 11 C-6.7 7.37 -3.4 3.74 0 0 Z " fill="#173C57" transform="translate(361,231)"/>
<path d="M0 0 C0 0.66 0 1.32 0 2 C-2.97 2 -5.94 2 -9 2 C-9.33 1.34 -9.66 0.68 -10 0 C-6.33694766 -0.74926071 -3.57644848 -1.2380014 0 0 Z " fill="#2C4E66" transform="translate(603,815)"/>
<path d="M0 0 C0.66 0 1.32 0 2 0 C0.47291037 3.43595166 -1.59927045 6.11912454 -4 9 C-4.66 8.67 -5.32 8.34 -6 8 C-5.04956626 6.66102417 -4.08940853 5.32894573 -3.125 4 C-2.59132813 3.2575 -2.05765625 2.515 -1.5078125 1.75 C-1.01023437 1.1725 -0.51265625 0.595 0 0 Z " fill="#20476B" transform="translate(477,348)"/>
<path d="M0 0 C0.33 0.66 0.66 1.32 1 2 C-3 8.57142857 -3 8.57142857 -7 10 C-4.75421558 6.59260295 -2.48862878 3.23521742 0 0 Z " fill="#1C4461" transform="translate(320,281)"/>
<path d="M0 0 C2.97 0 5.94 0 9 0 C7.515 1.485 7.515 1.485 6 3 C4.65737935 2.70630173 3.32303717 2.3721042 2 2 C1.01 2.66 0.02 3.32 -1 4 C-0.67 2.68 -0.34 1.36 0 0 Z " fill="#173B58" transform="translate(592,771)"/>
<path d="M0 0 C2.43840236 2.43840236 3.62292893 4.85240898 5 8 C4.67 8.66 4.34 9.32 4 10 C0.38860104 6.12435233 0.38860104 6.12435233 -1 4 C-0.8125 1.625 -0.8125 1.625 0 0 Z " fill="#B3C4D2" transform="translate(729,307)"/>
</svg>
